<svg fill="none" height="20" viewBox="0 0 20 20" width="20" xmlns="http://www.w3.org/2000/svg"><g fill="#212121"><path d="m3 1c-1.10458 0-2 .89539-2 2v4c0 1.10461.89542 2 2 2h5c1.10458 0 2-.89539 2-2v-4c0-1.10461-.89542-2-2-2zm.5 5h4c.27615 0 .5.22388.5.5s-.22385.5-.5.5h-4c-.27615 0-.5-.22388-.5-.5s.22385-.5.5-.5zm-.5-2.5c0-.27612.22385-.5.5-.5h4c.27615 0 .5.22388.5.5s-.22385.5-.5.5h-4c-.27615 0-.5-.22388-.5-.5z"/><path d="m3 14v-4h1v4c0 .3727.1019.7214.27939 1.0201l4.66928-4.5881c.58359-.57336 1.51903-.57336 2.10263 0l4.6693 4.5881c.1775-.2987.2794-.6474.2794-1.0201v-8c0-1.10461-.8954-2-2-2h-3v-1h3c1.6569 0 3 1.34314 3 3v8c0 1.6569-1.3431 3-3 3h-8c-1.65686 0-3-1.3431-3-3zm3 2h8c.3691 0 .7149-.1 1.0117-.2744l-4.6613-4.5803c-.1945-.1911-.50631-.1911-.70083 0l-4.66132 4.5803c.29681.1744.64261.2744 1.01175.2744z"/><path d="m12.5 9c-.8284 0-1.5-.67163-1.5-1.5s.6716-1.5 1.5-1.5 1.5.67163 1.5 1.5-.6716 1.5-1.5 1.5zm.5-1.5c0-.27612-.2238-.5-.5-.5s-.5.22388-.5.5.2238.5.5.5.5-.22388.5-.5z"/></g></svg>